<svg width="294" height="222" xmlns="http://www.w3.org/2000/svg" xmlns:xlink="http://www.w3.org/1999/xlink" overflow="hidden"><defs><clipPath id="clip0"><path d="M540 319 834 319 834 541 540 541Z" fill-rule="evenodd" clip-rule="evenodd"/></clipPath><radialGradient cx="579120" cy="579120" r="818999" gradientUnits="userSpaceOnUse" spreadMethod="pad" id="fill1" gradientTransform="matrix(7.41295e-05 -7.43442e-05 7.43442e-05 7.41295e-05 600.26 434.185)"><stop offset="0" stop-color="#F6F8FC" stop-opacity="0.2"/><stop offset="0.00438596" stop-color="#F5F7FB" stop-opacity="0.202202"/><stop offset="0.00877193" stop-color="#F5F7FB" stop-opacity="0.204403"/><stop offset="0.0131579" stop-color="#F5F7FB" stop-opacity="0.206605"/><stop offset="0.0175439" stop-color="#F5F7FB" stop-opacity="0.208806"/><stop offset="0.0219298" stop-color="#F5F7FB" stop-opacity="0.211008"/><stop offset="0.0263158" stop-color="#F5F7FB" stop-opacity="0.213209"/><stop offset="0.0307018" stop-color="#F5F7FB" stop-opacity="0.215411"/><stop offset="0.0350877" stop-color="#F5F7FB" stop-opacity="0.217613"/><stop offset="0.0394737" stop-color="#F5F7FB" stop-opacity="0.219814"/><stop offset="0.0438596" stop-color="#F5F7FB" stop-opacity="0.222016"/><stop offset="0.0482456" stop-color="#F5F7FB" stop-opacity="0.224217"/><stop offset="0.0526316" stop-color="#F5F7FB" stop-opacity="0.226419"/><stop offset="0.0570175" stop-color="#F4F7FB" stop-opacity="0.228621"/><stop offset="0.0614035" stop-color="#F4F7FB" stop-opacity="0.230822"/><stop offset="0.0657895" stop-color="#F4F7FB" stop-opacity="0.233024"/><stop offset="0.0701754" stop-color="#F4F7FB" stop-opacity="0.235225"/><stop offset="0.0745614" stop-color="#F4F7FA" stop-opacity="0.237427"/><stop offset="0.0789474" stop-color="#F4F6FA" stop-opacity="0.239628"/><stop offset="0.0833333" stop-color="#F3F6FA" stop-opacity="0.24183"/><stop offset="0.0877193" stop-color="#F3F6FA" stop-opacity="0.244032"/><stop offset="0.0921053" stop-color="#F3F6FA" stop-opacity="0.246233"/><stop offset="0.0964912" stop-color="#F3F6FA" stop-opacity="0.248435"/><stop offset="0.100877" stop-color="#F2F6FA" stop-opacity="0.250636"/><stop offset="0.105263" stop-color="#F2F6FA" stop-opacity="0.252838"/><stop offset="0.109649" stop-color="#F2F5F9" stop-opacity="0.25504"/><stop offset="0.114035" stop-color="#F2F5F9" stop-opacity="0.257241"/><stop offset="0.118421" stop-color="#F1F5F9" stop-opacity="0.259443"/><stop offset="0.122807" stop-color="#F1F5F9" stop-opacity="0.261644"/><stop offset="0.127193" stop-color="#F1F5F9" stop-opacity="0.263846"/><stop offset="0.131579" stop-color="#F0F5F9" stop-opacity="0.266047"/><stop offset="0.135965" stop-color="#F0F4F8" stop-opacity="0.268249"/><stop offset="0.140351" stop-color="#F0F4F8" stop-opacity="0.270451"/><stop offset="0.144737" stop-color="#EFF4F8" stop-opacity="0.272652"/><stop offset="0.149123" stop-color="#EFF4F8" stop-opacity="0.274854"/><stop offset="0.153509" stop-color="#EFF4F8" stop-opacity="0.277055"/><stop offset="0.157895" stop-color="#EEF3F7" stop-opacity="0.279257"/><stop offset="0.162281" stop-color="#EEF3F7" stop-opacity="0.281459"/><stop offset="0.166667" stop-color="#EEF3F7" stop-opacity="0.28366"/><stop offset="0.171053" stop-color="#EDF3F7" stop-opacity="0.285862"/><stop offset="0.175439" stop-color="#EDF3F6" stop-opacity="0.288063"/><stop offset="0.179825" stop-color="#ECF2F6" stop-opacity="0.290265"/><stop offset="0.184211" stop-color="#ECF2F6" stop-opacity="0.292466"/><stop offset="0.188596" stop-color="#EBF2F6" stop-opacity="0.294668"/><stop offset="0.192982" stop-color="#EBF2F5" stop-opacity="0.29687"/><stop offset="0.197368" stop-color="#EBF1F5" stop-opacity="0.299071"/><stop offset="0.201754" stop-color="#EAF1F5" stop-opacity="0.301273"/><stop offset="0.20614" stop-color="#EAF1F5" stop-opacity="0.303474"/><stop offset="0.210526" stop-color="#E9F1F4" stop-opacity="0.305676"/><stop offset="0.214912" stop-color="#E9F0F4" stop-opacity="0.307878"/><stop offset="0.219298" stop-color="#E8F0F4" stop-opacity="0.310079"/><stop offset="0.223684" stop-color="#E8F0F3" stop-opacity="0.312281"/><stop offset="0.22807" stop-color="#E7EFF3" stop-opacity="0.314482"/><stop offset="0.232456" stop-color="#E7EFF3" stop-opacity="0.316684"/><stop offset="0.236842" stop-color="#E6EFF3" stop-opacity="0.318885"/><stop offset="0.241228" stop-color="#E6EFF2" stop-opacity="0.321087"/><stop offset="0.245614" stop-color="#E5EEF2" stop-opacity="0.323289"/><stop offset="0.25" stop-color="#E4EEF2" stop-opacity="0.32549"/><stop offset="0.254386" stop-color="#E4EEF1" stop-opacity="0.327692"/><stop offset="0.258772" stop-color="#E3EDF1" stop-opacity="0.329893"/><stop offset="0.263158" stop-color="#E3EDF1" stop-opacity="0.332095"/><stop offset="0.267544" stop-color="#E2EDF0" stop-opacity="0.334297"/><stop offset="0.27193" stop-color="#E2ECF0" stop-opacity="0.336498"/><stop offset="0.276316" stop-color="#E1ECF0" stop-opacity="0.3387"/><stop offset="0.280702" stop-color="#E0ECEF" stop-opacity="0.340901"/><stop offset="0.285088" stop-color="#E0EBEF" stop-opacity="0.343103"/><stop offset="0.289474" stop-color="#DFEBEE" stop-opacity="0.345304"/><stop offset="0.29386" stop-color="#DEEBEE" stop-opacity="0.347506"/><stop offset="0.298246" stop-color="#DEEAEE" stop-opacity="0.349708"/><stop offset="0.302632" stop-color="#DDEAED" stop-opacity="0.351909"/><stop offset="0.307018" stop-color="#DCEAED" stop-opacity="0.354111"/><stop offset="0.311404" stop-color="#DCE9ED" stop-opacity="0.356312"/><stop offset="0.315789" stop-color="#DBE9EC" stop-opacity="0.358514"/><stop offset="0.320175" stop-color="#DAE8EC" stop-opacity="0.360716"/><stop offset="0.324561" stop-color="#DAE8EB" stop-opacity="0.362917"/><stop offset="0.328947" stop-color="#D9E8EB" stop-opacity="0.365119"/><stop offset="0.333333" stop-color="#D8E7EB" stop-opacity="0.36732"/><stop offset="0.337719" stop-color="#D8E7EA" stop-opacity="0.369522"/><stop offset="0.342105" stop-color="#D7E6EA" stop-opacity="0.371723"/><stop offset="0.346491" stop-color="#D6E6E9" stop-opacity="0.373925"/><stop offset="0.350877" stop-color="#D5E6E9" stop-opacity="0.376127"/><stop offset="0.355263" stop-color="#D5E5E8" stop-opacity="0.378328"/><stop offset="0.359649" stop-color="#D4E5E8" stop-opacity="0.38053"/><stop offset="0.364035" stop-color="#D3E4E8" stop-opacity="0.382731"/><stop offset="0.368421" stop-color="#D2E4E7" stop-opacity="0.384933"/><stop offset="0.372807" stop-color="#D1E3E7" stop-opacity="0.387135"/><stop offset="0.377193" stop-color="#D1E3E6" stop-opacity="0.389336"/><stop offset="0.381579" stop-color="#D0E2E6" stop-opacity="0.391538"/><stop offset="0.385965" stop-color="#CFE2E5" stop-opacity="0.393739"/><stop offset="0.390351" stop-color="#CEE2E5" stop-opacity="0.395941"/><stop offset="0.394737" stop-color="#CDE1E4" stop-opacity="0.398142"/><stop offset="0.399123" stop-color="#CDE1E4" stop-opacity="0.400344"/><stop offset="0.403509" stop-color="#CCE0E3" stop-opacity="0.402546"/><stop offset="0.407895" stop-color="#CBE0E3" stop-opacity="0.404747"/><stop offset="0.412281" stop-color="#CADFE2" stop-opacity="0.406949"/><stop offset="0.416667" stop-color="#C9DFE2" stop-opacity="0.40915"/><stop offset="0.421053" stop-color="#C8DEE1" stop-opacity="0.411352"/><stop offset="0.425439" stop-color="#C7DEE1" stop-opacity="0.413553"/><stop offset="0.429825" stop-color="#C6DDE0" stop-opacity="0.415755"/><stop offset="0.434211" stop-color="#C6DDE0" stop-opacity="0.417957"/><stop offset="0.438596" stop-color="#C5DCDF" stop-opacity="0.420158"/><stop offset="0.442982" stop-color="#C4DCDF" stop-opacity="0.42236"/><stop offset="0.447368" stop-color="#C3DBDE" stop-opacity="0.424561"/><stop offset="0.451754" stop-color="#C2DBDE" stop-opacity="0.426763"/><stop offset="0.45614" stop-color="#C1DADD" stop-opacity="0.428965"/><stop offset="0.460526" stop-color="#C0DADC" stop-opacity="0.431166"/><stop offset="0.464912" stop-color="#BFD9DC" stop-opacity="0.433368"/><stop offset="0.469298" stop-color="#BED9DB" stop-opacity="0.435569"/><stop offset="0.473684" stop-color="#BDD8DB" stop-opacity="0.437771"/><stop offset="0.47807" stop-color="#BCD7DA" stop-opacity="0.439972"/><stop offset="0.482456" stop-color="#BBD7DA" stop-opacity="0.442174"/><stop offset="0.486842" stop-color="#BAD6D9" stop-opacity="0.444376"/><stop offset="0.491228" stop-color="#B9D6D8" stop-opacity="0.446577"/><stop offset="0.495614" stop-color="#B8D5D8" stop-opacity="0.448779"/><stop offset="0.5" stop-color="#B7D5D7" stop-opacity="0.45098"/><stop offset="0.504386" stop-color="#B6D4D7" stop-opacity="0.453182"/><stop offset="0.508772" stop-color="#B5D3D6" stop-opacity="0.455384"/><stop offset="0.513158" stop-color="#B4D3D5" stop-opacity="0.457585"/><stop offset="0.517544" stop-color="#B3D2D5" stop-opacity="0.459787"/><stop offset="0.52193" stop-color="#B2D2D4" stop-opacity="0.461988"/><stop offset="0.526316" stop-color="#B1D1D4" stop-opacity="0.46419"/><stop offset="0.530702" stop-color="#B0D0D3" stop-opacity="0.466391"/><stop offset="0.535088" stop-color="#AFD0D2" stop-opacity="0.468593"/><stop offset="0.539474" stop-color="#AECFD2" stop-opacity="0.470795"/><stop offset="0.54386" stop-color="#ACCFD1" stop-opacity="0.472996"/><stop offset="0.548246" stop-color="#ABCED0" stop-opacity="0.475198"/><stop offset="0.552632" stop-color="#AACDD0" stop-opacity="0.477399"/><stop offset="0.557018" stop-color="#A9CDCF" stop-opacity="0.479601"/><stop offset="0.561404" stop-color="#A8CCCE" stop-opacity="0.481803"/><stop offset="0.565789" stop-color="#A7CCCE" stop-opacity="0.484004"/><stop offset="0.570175" stop-color="#A6CBCD" stop-opacity="0.486206"/><stop offset="0.574561" stop-color="#A4CACC" stop-opacity="0.488407"/><stop offset="0.578947" stop-color="#A3CACC" stop-opacity="0.490609"/><stop offset="0.583333" stop-color="#A2C9CB" stop-opacity="0.49281"/><stop offset="0.587719" stop-color="#A1C8CA" stop-opacity="0.495012"/><stop offset="0.592105" stop-color="#A0C8CA" stop-opacity="0.497214"/><stop offset="0.596491" stop-color="#9FC7C9" stop-opacity="0.499415"/><stop offset="0.600877" stop-color="#9DC6C8" stop-opacity="0.501617"/><stop offset="0.605263" stop-color="#9CC6C8" stop-opacity="0.503818"/><stop offset="0.609649" stop-color="#9BC5C7" stop-opacity="0.50602"/><stop offset="0.614035" stop-color="#9AC4C6" stop-opacity="0.508222"/><stop offset="0.618421" stop-color="#98C4C5" stop-opacity="0.510423"/><stop offset="0.622807" stop-color="#97C3C5" stop-opacity="0.512625"/><stop offset="0.627193" stop-color="#96C2C4" stop-opacity="0.514826"/><stop offset="0.631579" stop-color="#95C1C3" stop-opacity="0.517028"/><stop offset="0.635965" stop-color="#93C1C3" stop-opacity="0.519229"/><stop offset="0.640351" stop-color="#92C0C2" stop-opacity="0.521431"/><stop offset="0.644737" stop-color="#91BFC1" stop-opacity="0.523633"/><stop offset="0.649123" stop-color="#90BFC0" stop-opacity="0.525834"/><stop offset="0.653509" stop-color="#8EBEC0" stop-opacity="0.528036"/><stop offset="0.657895" stop-color="#8DBDBF" stop-opacity="0.530237"/><stop offset="0.662281" stop-color="#8CBCBE" stop-opacity="0.532439"/><stop offset="0.666667" stop-color="#8ABCBD" stop-opacity="0.534641"/><stop offset="0.671053" stop-color="#89BBBD" stop-opacity="0.536842"/><stop offset="0.675439" stop-color="#88BABC" stop-opacity="0.539044"/><stop offset="0.679825" stop-color="#86B9BB" stop-opacity="0.541245"/><stop offset="0.684211" stop-color="#85B9BA" stop-opacity="0.543447"/><stop offset="0.688596" stop-color="#84B8B9" stop-opacity="0.545648"/><stop offset="0.692982" stop-color="#82B7B9" stop-opacity="0.54785"/><stop offset="0.697368" stop-color="#81B6B8" stop-opacity="0.550052"/><stop offset="0.701754" stop-color="#80B6B7" stop-opacity="0.552253"/><stop offset="0.70614" stop-color="#7EB5B6" stop-opacity="0.554455"/><stop offset="0.710526" stop-color="#7DB4B5" stop-opacity="0.556656"/><stop offset="0.714912" stop-color="#7BB3B5" stop-opacity="0.558858"/><stop offset="0.719298" stop-color="#7AB2B4" stop-opacity="0.56106"/><stop offset="0.723684" stop-color="#79B2B3" stop-opacity="0.563261"/><stop offset="0.72807" stop-color="#77B1B2" stop-opacity="0.565463"/><stop offset="0.732456" stop-color="#76B0B1" stop-opacity="0.567664"/><stop offset="0.736842" stop-color="#74AFB0" stop-opacity="0.569866"/><stop offset="0.741228" stop-color="#73AEB0" stop-opacity="0.572067"/><stop offset="0.745614" stop-color="#71AEAF" stop-opacity="0.574269"/><stop offset="0.75" stop-color="#70ADAE" stop-opacity="0.576471"/><stop offset="0.754386" stop-color="#6FACAD" stop-opacity="0.578672"/><stop offset="0.758772" stop-color="#6DABAC" stop-opacity="0.580874"/><stop offset="0.763158" stop-color="#6CAAAB" stop-opacity="0.583075"/><stop offset="0.767544" stop-color="#6AAAAB" stop-opacity="0.585277"/><stop offset="0.77193" stop-color="#69A9AA" stop-opacity="0.587479"/><stop offset="0.776316" stop-color="#67A8A9" stop-opacity="0.58968"/><stop offset="0.780702" stop-color="#66A7A8" stop-opacity="0.591882"/><stop offset="0.785088" stop-color="#64A6A7" stop-opacity="0.594083"/><stop offset="0.789474" stop-color="#62A5A6" stop-opacity="0.596285"/><stop offset="0.79386" stop-color="#61A4A5" stop-opacity="0.598486"/><stop offset="0.798246" stop-color="#5FA4A4" stop-opacity="0.600688"/><stop offset="0.802632" stop-color="#5EA3A3" stop-opacity="0.60289"/><stop offset="0.807018" stop-color="#5CA2A3" stop-opacity="0.605091"/><stop offset="0.811404" stop-color="#5BA1A2" stop-opacity="0.607293"/><stop offset="0.815789" stop-color="#59A0A1" stop-opacity="0.609494"/><stop offset="0.820175" stop-color="#589FA0" stop-opacity="0.611696"/><stop offset="0.824561" stop-color="#569E9F" stop-opacity="0.613898"/><stop offset="0.828947" stop-color="#549D9E" stop-opacity="0.616099"/><stop offset="0.833333" stop-color="#539D9D" stop-opacity="0.618301"/><stop offset="0.837719" stop-color="#519C9C" stop-opacity="0.620502"/><stop offset="0.842105" stop-color="#509B9B" stop-opacity="0.622704"/><stop offset="0.846491" stop-color="#4E9A9A" stop-opacity="0.624905"/><stop offset="0.850877" stop-color="#4C9999" stop-opacity="0.627107"/><stop offset="0.855263" stop-color="#4B9898" stop-opacity="0.629309"/><stop offset="0.859649" stop-color="#499797" stop-opacity="0.63151"/><stop offset="0.864035" stop-color="#479696" stop-opacity="0.633712"/><stop offset="0.868421" stop-color="#469595" stop-opacity="0.635913"/><stop offset="0.872807" stop-color="#449494" stop-opacity="0.638115"/><stop offset="0.877193" stop-color="#429393" stop-opacity="0.640316"/><stop offset="0.881579" stop-color="#419292" stop-opacity="0.642518"/><stop offset="0.885965" stop-color="#3F9192" stop-opacity="0.64472"/><stop offset="0.890351" stop-color="#3D9191" stop-opacity="0.646921"/><stop offset="0.894737" stop-color="#3C9090" stop-opacity="0.649123"/><stop offset="0.899123" stop-color="#3A8F8F" stop-opacity="0.651324"/><stop offset="0.903509" stop-color="#388E8E" stop-opacity="0.653526"/><stop offset="0.907895" stop-color="#368D8D" stop-opacity="0.655728"/><stop offset="0.912281" stop-color="#358C8C" stop-opacity="0.657929"/><stop offset="0.916667" stop-color="#338B8B" stop-opacity="0.660131"/><stop offset="0.921053" stop-color="#318A8A" stop-opacity="0.662332"/><stop offset="0.925439" stop-color="#2F8988" stop-opacity="0.664534"/><stop offset="0.929825" stop-color="#2E8887" stop-opacity="0.666736"/><stop offset="0.934211" stop-color="#2C8786" stop-opacity="0.668937"/><stop offset="0.938596" stop-color="#2A8685" stop-opacity="0.671139"/><stop offset="0.942982" stop-color="#288584" stop-opacity="0.67334"/><stop offset="0.947368" stop-color="#278483" stop-opacity="0.675542"/><stop offset="0.951754" stop-color="#258382" stop-opacity="0.677743"/><stop offset="0.95614" stop-color="#238281" stop-opacity="0.679945"/><stop offset="0.960526" stop-color="#218180" stop-opacity="0.682147"/><stop offset="0.964912" stop-color="#1F807F" stop-opacity="0.684348"/><stop offset="0.969298" stop-color="#1E7F7E" stop-opacity="0.68655"/><stop offset="0.973684" stop-color="#1C7E7D" stop-opacity="0.688751"/><stop offset="0.97807" stop-color="#1A7D7C" stop-opacity="0.690953"/><stop offset="0.982456" stop-color="#187C7B" stop-opacity="0.693154"/><stop offset="0.986842" stop-color="#167B7A" stop-opacity="0.695356"/><stop offset="0.991228" stop-color="#147A79" stop-opacity="0.697558"/><stop offset="0.995614" stop-color="#127978" stop-opacity="0.699759"/><stop offset="1" stop-color="#117877" stop-opacity="0.701961"/></radialGradient></defs><g clip-path="url(#clip0)" transform="translate(-540 -319)"><path d="M691.553 532.092C690.83 532.31 690.447 533.052 690.447 533.576 690.447 534.057 690.787 534.581 691.468 534.581 692.234 534.581 693 533.969 693 532.878 693 531.742 691.894 531 690.617 531 689.383 531 688.617 531.917 688.319 532.31 687.809 531.393 686.617 531 685.383 531 682.745 531 681.298 533.664 681.298 534.362 681.298 534.668 681.596 534.668 681.809 534.668 682.064 534.668 682.191 534.668 682.277 534.406 682.915 532.441 684.404 531.786 685.298 531.786 686.106 531.786 686.489 532.179 686.489 532.834 686.489 533.271 686.191 534.45 685.979 535.236L685.255 538.249C684.957 539.559 684.191 540.214 683.468 540.214 683.383 540.214 682.872 540.214 682.447 539.908 683.213 539.69 683.596 538.948 683.596 538.38 683.596 537.9 683.255 537.376 682.532 537.376 681.809 537.376 681 538.031 681 539.079 681 540.258 682.149 541 683.426 541 684.617 541 685.426 540.083 685.681 539.69 686.234 540.607 687.426 541 688.617 541 691.298 541 692.745 538.336 692.745 537.594 692.745 537.288 692.404 537.288 692.234 537.288 691.979 537.288 691.809 537.288 691.723 537.594 691.128 539.559 689.596 540.214 688.745 540.214 687.936 540.214 687.553 539.821 687.553 539.122 687.553 538.686 687.809 537.507 688.021 536.721 688.149 536.153 688.66 534.1 688.745 533.751 689.085 532.441 689.809 531.786 690.574 531.786 690.66 531.786 691.17 531.786 691.553 532.092" fill-rule="evenodd"/><path d="M792.596 429.13C791.83 429.348 791.447 430.087 791.447 430.609 791.447 431.087 791.787 431.609 792.511 431.609 793.234 431.609 794 431 794 429.913 794 428.783 792.894 428 791.617 428 790.383 428 789.617 428.957 789.319 429.348 788.809 428.435 787.617 428 786.383 428 783.745 428 782.298 430.696 782.298 431.391 782.298 431.696 782.596 431.696 782.809 431.696 783.064 431.696 783.191 431.696 783.277 431.435 783.915 429.435 785.404 428.783 786.298 428.783 787.106 428.783 787.489 429.174 787.489 429.87 787.489 430.304 787.191 431.478 786.979 432.261L786.255 435.217C785.957 436.565 785.191 437.217 784.468 437.217 784.383 437.217 783.872 437.217 783.447 436.87 784.213 436.652 784.596 435.913 784.596 435.391 784.596 434.913 784.255 434.391 783.532 434.391 782.809 434.391 782 435 782 436.087 782 437.217 783.149 438 784.426 438 785.617 438 786.426 437.043 786.681 436.652 787.234 437.565 788.426 438 789.617 438 792.298 438 793.745 435.304 793.745 434.609 793.745 434.304 793.447 434.304 793.234 434.304 792.979 434.304 792.851 434.304 792.766 434.609 792.128 436.565 790.596 437.217 789.745 437.217 788.936 437.217 788.553 436.826 788.553 436.13 788.553 435.652 788.809 434.522 789.021 433.739 789.149 433.174 789.66 431.13 789.745 430.783 790.085 429.478 790.809 428.783 791.574 428.783 791.66 428.783 792.17 428.783 792.596 429.13" fill-rule="evenodd"/><path d="M808.422 433.422 814.325 433.422C814.62 433.422 815 433.422 815 433 815 432.578 814.62 432.578 814.325 432.578L808.422 432.578 808.422 426.717C808.422 426.422 808.422 426 808 426 807.578 426 807.578 426.422 807.578 426.717L807.578 432.578 801.717 432.578C801.422 432.578 801 432.578 801 433 801 433.422 801.422 433.422 801.717 433.422L807.578 433.422 807.578 439.325C807.578 439.62 807.578 440 808 440 808.422 440 808.422 439.62 808.422 439.325L808.422 433.422" fill-rule="evenodd"/><path d="M828.023 423 825 426.532 825.406 427 828.023 424.351 830.594 427 831 426.532 828.023 423" fill-rule="evenodd"/><path d="M826.074 430.957C826.156 430.489 826.359 429.681 826.359 429.596 826.359 429.213 826.115 429 825.789 429 825.707 429 825.137 429.043 824.974 429.766L822.041 442.064C822 442.319 822 442.362 822 442.404 822 442.745 822.204 443 822.57 443 822.978 443 823.222 442.617 823.263 442.532 823.344 442.362 823.63 441.255 824.363 437.979 825.015 438.532 825.952 438.617 826.359 438.617 827.785 438.617 828.559 437.681 829.048 437.085 829.252 438.021 829.985 438.617 830.881 438.617 831.615 438.617 832.063 438.149 832.389 437.468 832.715 436.702 833 435.426 833 435.383 833 435.17 832.796 435.17 832.756 435.17 832.552 435.17 832.552 435.255 832.47 435.511 832.144 436.915 831.778 438.149 830.922 438.149 830.393 438.149 830.311 437.596 830.311 437.17 830.311 436.702 830.556 435.723 830.719 435L831.289 432.702C831.37 432.362 831.574 431.553 831.656 431.255 831.737 430.745 831.941 429.936 831.941 429.809 831.941 429.426 831.656 429.255 831.37 429.255 831.248 429.255 830.719 429.255 830.556 429.979L829.619 433.979C829.374 435.043 829.13 435.894 829.089 436.106 829.048 436.234 828.07 438.149 826.441 438.149 825.422 438.149 824.933 437.468 824.933 436.319 824.933 435.681 825.056 435.128 825.219 434.532L826.074 430.957" fill-rule="evenodd"/><path d="M550.558 432.13C549.795 432.348 549.413 433.087 549.413 433.609 549.413 434.087 549.753 434.609 550.474 434.609 551.194 434.609 552 434 552 432.913 552 431.783 550.855 431 549.583 431 548.353 431 547.59 431.957 547.293 432.348 546.784 431.435 545.597 431 544.367 431 541.739 431 540.297 433.696 540.297 434.391 540.297 434.696 540.594 434.696 540.806 434.696 541.06 434.696 541.187 434.696 541.272 434.435 541.908 432.435 543.392 431.783 544.283 431.783 545.088 431.783 545.47 432.174 545.47 432.87 545.47 433.304 545.173 434.478 544.961 435.261L544.24 438.217C543.943 439.565 543.18 440.217 542.459 440.217 542.375 440.217 541.866 440.217 541.442 439.87 542.205 439.652 542.587 438.913 542.587 438.391 542.587 437.913 542.247 437.391 541.526 437.391 540.806 437.391 540 438 540 439.087 540 440.217 541.145 441 542.417 441 543.604 441 544.41 440.043 544.664 439.652 545.216 440.565 546.403 441 547.59 441 550.261 441 551.703 438.304 551.703 437.609 551.703 437.304 551.406 437.304 551.194 437.304 550.94 437.304 550.813 437.304 550.728 437.565 550.092 439.565 548.565 440.217 547.717 440.217 546.912 440.217 546.53 439.826 546.53 439.13 546.53 438.652 546.784 437.522 546.996 436.696 547.124 436.13 547.633 434.13 547.717 433.783 548.057 432.478 548.777 431.783 549.541 431.783 549.625 431.783 550.134 431.783 550.558 432.13" fill-rule="evenodd"/><path d="M567.422 435.422 573.325 435.422C573.62 435.422 574 435.422 574 435 574 434.578 573.62 434.578 573.325 434.578L567.422 434.578 567.422 428.675C567.422 428.38 567.422 428 567 428 566.578 428 566.578 428.38 566.578 428.675L566.578 434.578 560.717 434.578C560.422 434.578 560 434.578 560 435 560 435.422 560.422 435.422 560.717 435.422L566.578 435.422 566.578 441.325C566.578 441.62 566.578 442 567 442 567.422 442 567.422 441.62 567.422 441.325L567.422 435.422" fill-rule="evenodd"/><path d="M586.023 426 583 428.645 583.406 429 586.023 427.026 588.594 429 589 428.645 586.023 426" fill-rule="evenodd"/><path d="M584.617 431.271C584.617 431.226 584.617 431 584.362 431 583.851 431 582.319 431.181 581.766 431.226 581.596 431.271 581.383 431.271 581.383 431.679 581.383 431.95 581.553 431.95 581.894 431.95 582.915 431.95 582.915 432.131 582.915 432.357 582.915 432.493 582.702 433.579 582.532 434.167L581.255 439.688C581.17 440.05 581 440.683 581 440.729 581 440.955 581.213 441 581.34 441L581.638 441C583.128 440.729 585.426 439.824 587.638 437.652 590.447 434.891 591 431.814 591 431.633 591 431.226 590.745 431 590.404 431 590.234 431 589.723 431.09 589.553 431.769 588.191 436.882 584.957 439.416 582.574 440.231L584.617 431.271" fill-rule="evenodd"/><path d="M600.26 434.185 686.119 348.077 772.228 433.936 686.368 520.045Z" stroke="#23373B" stroke-width="2" stroke-miterlimit="8" fill="url(#fill1)" fill-rule="evenodd"/><path d="M685.912 519.047 763.956 440.778 766.08 442.896 688.037 521.165ZM760.772 439.722 770.313 436.526 767.145 446.076Z" fill="#C35861"/><path d="M683.031 524.201C681.102 522.277 681.098 519.154 683.021 517.224 684.945 515.295 688.069 515.29 689.998 517.214 691.927 519.138 691.932 522.262 690.008 524.191 688.084 526.12 684.961 526.125 683.031 524.201Z" fill="#117877" fill-rule="evenodd"/><path d="M687.198 349.076 609.042 427.233 606.921 425.111 685.077 346.955ZM612.224 428.293 602.678 431.475 605.86 421.929Z" fill="#C35861"/><path d="M683.019 352.023C681.09 350.099 681.085 346.976 683.009 345.046 684.933 343.117 688.057 343.112 689.986 345.036 691.915 346.96 691.92 350.084 689.996 352.013 688.072 353.942 684.949 353.947 683.019 352.023Z" fill="#117877" fill-rule="evenodd"/><path d="M601.545 433.208 679.701 511.364 677.58 513.486 599.424 435.329ZM680.762 508.182 683.944 517.728 674.398 514.546Z" fill="#C35861"/><path d="M596.937 438.355C595.007 436.431 595.003 433.308 596.927 431.378 598.85 429.449 601.974 429.444 603.903 431.368 605.833 433.292 605.837 436.415 603.913 438.345 601.99 440.274 598.866 440.279 596.937 438.355Z" fill="#117877" fill-rule="evenodd"/><path d="M772.017 435.922 693.86 357.766 695.982 355.645 774.138 433.801ZM692.8 360.948 689.618 351.402 699.164 354.584Z" fill="#C35861"/><path d="M768.794 436.518C766.865 434.594 766.861 431.47 768.784 429.541 770.708 427.611 773.832 427.607 775.761 429.531 777.691 431.455 777.695 434.578 775.771 436.508 773.847 438.437 770.724 438.441 768.794 436.518Z" fill="#117877" fill-rule="evenodd"/><path d="M652.596 326.13C651.83 326.348 651.447 327.087 651.447 327.609 651.447 328.087 651.787 328.609 652.511 328.609 653.234 328.609 654 328 654 326.913 654 325.783 652.894 325 651.617 325 650.383 325 649.617 325.957 649.319 326.348 648.809 325.435 647.617 325 646.383 325 643.745 325 642.298 327.696 642.298 328.391 642.298 328.696 642.596 328.696 642.809 328.696 643.064 328.696 643.191 328.696 643.277 328.435 643.915 326.435 645.404 325.783 646.298 325.783 647.106 325.783 647.489 326.174 647.489 326.87 647.489 327.304 647.191 328.478 646.979 329.261L646.255 332.217C645.957 333.565 645.191 334.217 644.468 334.217 644.383 334.217 643.872 334.217 643.447 333.87 644.213 333.652 644.596 332.913 644.596 332.391 644.596 331.913 644.255 331.391 643.532 331.391 642.809 331.391 642 332 642 333.087 642 334.217 643.149 335 644.426 335 645.617 335 646.426 334.043 646.681 333.652 647.234 334.565 648.426 335 649.617 335 652.298 335 653.745 332.304 653.745 331.609 653.745 331.304 653.404 331.304 653.234 331.304 652.979 331.304 652.851 331.304 652.766 331.609 652.128 333.565 650.596 334.217 649.745 334.217 648.936 334.217 648.553 333.826 648.553 333.13 648.553 332.652 648.809 331.522 649.021 330.739 649.149 330.174 649.66 328.13 649.745 327.783 650.085 326.478 650.809 325.783 651.574 325.783 651.66 325.783 652.17 325.783 652.596 326.13" fill-rule="evenodd"/><path d="M668.422 329.422 674.283 329.422C674.578 329.422 675 329.422 675 329 675 328.578 674.578 328.578 674.283 328.578L668.422 328.578 668.422 322.717C668.422 322.422 668.422 322 668 322 667.578 322 667.578 322.422 667.578 322.717L667.578 328.578 661.717 328.578C661.422 328.578 661 328.578 661 329 661 329.422 661.422 329.422 661.717 329.422L667.578 329.422 667.578 335.325C667.578 335.62 667.578 336 668 336 668.422 336 668.422 335.62 668.422 335.325L668.422 329.422" fill-rule="evenodd"/><path d="M688.023 320 685 322.649 685.406 323 688.023 321.013 690.594 323 691 322.649 688.023 320" fill-rule="evenodd"/><path d="M685.472 326.957C685.561 326.489 685.782 325.681 685.782 325.596 685.782 325.213 685.517 325 685.162 325 685.074 325 684.454 325.043 684.277 325.766L681.089 338.064C681 338.319 681 338.362 681 338.404 681 338.745 681.266 339 681.62 339 682.107 339 682.373 338.617 682.417 338.532 682.506 338.362 682.771 337.255 683.613 333.979 684.321 334.532 685.339 334.617 685.782 334.617 687.332 334.617 688.173 333.681 688.705 333.085 688.926 334.021 689.723 334.617 690.697 334.617 691.45 334.617 691.982 334.149 692.336 333.468 692.69 332.702 693 331.426 693 331.383 693 331.17 692.779 331.17 692.734 331.17 692.513 331.17 692.469 331.255 692.424 331.511 692.026 332.915 691.627 334.149 690.742 334.149 690.122 334.149 690.078 333.596 690.078 333.17 690.078 332.702 690.343 331.723 690.52 331L691.14 328.702C691.185 328.362 691.406 327.553 691.494 327.255 691.627 326.745 691.849 325.936 691.849 325.809 691.849 325.426 691.539 325.255 691.185 325.255 691.096 325.255 690.52 325.255 690.343 325.979L689.28 329.979C689.059 331.043 688.793 331.894 688.749 332.106 688.705 332.234 687.642 334.149 685.871 334.149 684.764 334.149 684.232 333.468 684.232 332.319 684.232 331.681 684.365 331.128 684.542 330.532L685.472 326.957" fill-rule="evenodd"/><path d="M707.422 329.422 713.325 329.422C713.578 329.422 714 329.422 714 329 714 328.578 713.578 328.578 713.325 328.578L707.422 328.578 707.422 322.717C707.422 322.422 707.422 322 707 322 706.578 322 706.578 322.422 706.578 322.717L706.578 328.578 700.717 328.578C700.422 328.578 700 328.578 700 329 700 329.422 700.422 329.422 700.717 329.422L706.578 329.422 706.578 335.325C706.578 335.62 706.578 336 707 336 707.422 336 707.422 335.62 707.422 335.325L707.422 329.422" fill-rule="evenodd"/><path d="M726.519 320 724 322.649 724.338 323 726.519 321.013 728.662 323 729 322.649 726.519 320" fill-rule="evenodd"/><path d="M724.617 325.271C724.617 325.226 724.617 325 724.362 325 723.851 325 722.319 325.181 721.766 325.226 721.596 325.271 721.383 325.271 721.383 325.679 721.383 325.95 721.553 325.95 721.894 325.95 722.915 325.95 722.957 326.131 722.957 326.357 722.957 326.493 722.702 327.579 722.532 328.167L721.255 333.688C721.17 334.05 721 334.683 721 334.729 721 334.955 721.213 335 721.34 335L721.638 335C723.128 334.729 725.426 333.824 727.638 331.697 730.447 328.891 731 325.814 731 325.633 731 325.226 730.745 325 730.404 325 730.234 325 729.723 325.09 729.553 325.769 728.191 330.882 724.957 333.416 722.574 334.231L724.617 325.271" fill-rule="evenodd"/><path d="M574 363 572.109 363 569.694 371.597C569.011 374.006 567.751 378.605 567.646 380.029L567.593 380.029C567.593 379.974 567.435 378.55 565.755 372.363L563.182 363 561.028 363 558.665 371.542C558.088 373.622 556.775 378.441 556.67 379.974L556.617 379.974C556.565 378.879 555.829 376.196 555.619 375.265L554.411 370.72 552.258 363 550 363 555.357 382 557.457 382 560.083 372.527C560.608 370.501 561.764 366.45 561.921 365.026L561.921 365.026C562.026 365.847 562.656 368.421 563.392 371.049L566.385 382 568.643 382 574 363" fill="#C35861" fill-rule="evenodd"/><path d="M579.744 361.296C580.016 361.349 580.178 361.349 580.775 361.508 581.372 361.667 581.806 361.773 582.186 361.773 582.891 361.773 583 361.243 583 361.084 583 360.925 582.891 360.343 582.186 360.343 581.806 360.343 581.372 360.449 580.775 360.607 580.178 360.766 580.016 360.766 579.744 360.819 579.744 360.184 579.907 359.389 579.961 358.807 580.07 358.436 580.233 357.536 580.233 356.847 580.233 356.318 579.961 356 579.473 356 579.093 356 578.767 356.212 578.767 356.847 578.767 357.483 578.93 358.383 579.039 359.019 579.039 359.231 579.202 360.131 579.256 360.819 578.984 360.766 578.767 360.766 578.225 360.607 577.628 360.449 577.14 360.343 576.814 360.343 576.054 360.343 576 360.872 576 361.084 576 361.19 576.054 361.773 576.814 361.773 577.14 361.773 577.628 361.667 578.225 361.508 578.767 361.349 578.984 361.349 579.256 361.296 579.202 361.773 579.093 362.355 578.984 362.726 578.767 363.891 578.767 363.997 578.767 365.003 578.767 368.551 579.093 372.365 579.147 372.735 579.202 372.894 579.202 373 579.473 373 579.798 373 579.798 372.894 579.853 372.629 579.853 372.576 579.961 370.988 580.07 369.875 580.178 368.234 580.233 366.592 580.233 365.003 580.233 363.997 580.233 363.891 579.961 362.726 579.907 362.514 579.744 361.773 579.744 361.296" fill="#C35861" fill-rule="evenodd"/><path d="M578.763 385.962C578.548 386.573 577.957 387.541 576.989 387.541 576.935 387.541 576.398 387.541 575.968 387.287 576.72 387.032 576.828 386.42 576.828 386.318 576.828 385.911 576.505 385.656 576.075 385.656 575.538 385.656 575 386.064 575 386.726 575 387.592 576.021 388 576.935 388 577.796 388 578.602 387.49 579.032 386.777 579.516 387.694 580.538 388 581.29 388 583.441 388 584.57 385.809 584.57 385.299 584.57 385.045 584.355 385.045 584.301 385.045 584.032 385.045 583.979 385.146 583.925 385.35 583.548 386.573 582.419 387.541 581.344 387.541 580.591 387.541 580.215 387.032 580.215 386.369 580.215 385.911 580.645 384.28 581.183 382.293 581.559 380.917 582.419 380.51 583.011 380.51 583.065 380.51 583.656 380.51 584.032 380.764 583.441 380.917 583.226 381.376 583.226 381.732 583.226 382.089 583.548 382.395 583.979 382.395 584.409 382.395 585 382.038 585 381.274 585 380.306 583.817 380 583.065 380 582.151 380 581.398 380.561 580.968 381.274 580.645 380.51 579.785 380 578.71 380 576.613 380 575.43 382.191 575.43 382.701 575.43 382.955 575.699 382.955 575.753 382.955 575.968 382.955 576.021 382.854 576.075 382.65 576.559 381.274 577.742 380.51 578.656 380.51 579.301 380.51 579.785 380.815 579.785 381.682 579.785 382.038 579.57 382.904 579.409 383.516L578.763 385.962" fill="#C35861" fill-rule="evenodd"/><path d="M594.93 383.93 600.342 383.93C600.595 383.93 601 383.93 601 383.525 601 383.07 600.595 383.07 600.342 383.07L594.93 383.07 594.93 377.658C594.93 377.405 594.93 377 594.525 377 594.07 377 594.07 377.405 594.07 377.658L594.07 383.07 588.658 383.07C588.455 383.07 588 383.07 588 383.475 588 383.93 588.405 383.93 588.658 383.93L594.07 383.93 594.07 389.342C594.07 389.595 594.07 390 594.525 390 594.93 390 594.93 389.595 594.93 389.342L594.93 383.93" fill="#C35861" fill-rule="evenodd"/><path d="M607.444 380.519C607.5 380.468 607.5 380.364 607.5 380.26 607.5 380.208 607.5 380 607.167 380 607.167 380 606.056 380.104 605.944 380.104 605.556 380.104 605.222 380.156 604.833 380.156 604.556 380.208 604.278 380.208 604.278 380.571 604.278 380.831 604.556 380.831 604.833 380.831 605.722 380.831 605.722 380.935 605.722 381.143 605.722 381.247 605.667 381.61 605.556 381.818L604.611 385.507C604.111 387.325 604 387.688 604 387.74 604 388 604.278 388 604.389 388L604.667 388C606.444 387.74 608.889 386.909 610.944 385.143 613.611 382.961 614 380.623 614 380.571 614 380.26 613.722 380 613.333 380 612.611 380 612.5 380.519 612.333 380.987 611.556 383.584 608.944 386.338 605.667 387.273L607.444 380.519" fill="#C35861" fill-rule="evenodd"/><path d="M617.556 387.907C617.556 389.028 617.378 390.262 616.356 391.495 616.267 391.607 616.222 391.664 616.222 391.72 616.222 391.888 616.356 392 616.444 392 616.667 392 618 390.43 618 388.131 618 386.897 617.6 386 616.889 386 616.4 386 616 386.505 616 387.121 616 387.738 616.356 388.243 616.933 388.243 617.289 388.243 617.556 387.907 617.556 387.907" fill="#C35861" fill-rule="evenodd"/><path d="M621.106 391.004C621 391.266 621 391.371 621 391.371 621 391.79 621.317 392 621.635 392 622.322 392 622.428 391.371 622.534 391.057 622.534 390.952 622.904 389.485 623.38 387.703 623.962 388.122 624.702 388.227 625.337 388.227 626.923 388.227 627.981 386.969 627.981 386.917 628.351 388.175 629.62 388.227 629.885 388.227 630.572 388.227 630.995 387.86 631.365 387.284 631.736 386.55 632 385.502 632 385.45 632 385.188 631.736 385.188 631.683 385.188 631.471 385.188 631.418 385.293 631.313 385.764 631.101 386.655 630.731 387.755 629.938 387.755 629.462 387.755 629.356 387.336 629.356 386.812 629.356 386.55 629.514 385.869 629.62 385.397 629.726 384.873 629.938 384.14 630.043 383.721L630.466 382.096C630.572 381.677 630.784 380.838 630.784 380.786 630.784 380.419 630.466 380.157 630.149 380.157 629.938 380.157 629.62 380.262 629.409 380.629 629.356 380.734 629.197 381.31 629.091 381.677L628.721 383.197 628.139 385.502C628.034 385.921 628.034 385.974 627.875 386.236 627.293 387.022 626.447 387.755 625.389 387.755 623.909 387.755 623.909 386.445 623.909 386.131 623.909 385.607 623.962 385.397 624.226 384.402 624.385 383.616 624.438 383.459 624.596 382.777L624.861 381.729C624.966 381.362 625.178 380.629 625.178 380.576 625.178 380.262 624.913 380 624.543 380 623.856 380 623.697 380.629 623.644 380.838L621.106 391.004" fill="#C35861" fill-rule="evenodd"/><path d="M769 366 767.109 366 764.694 374.566C764.011 377.038 762.751 381.65 762.646 383.023L762.593 383.023C762.593 383.023 762.435 381.595 760.755 375.335L758.182 366 756.028 366 753.665 374.512C753.088 376.653 751.775 381.431 751.67 382.968L751.617 382.968C751.565 381.87 750.829 379.179 750.619 378.301L749.411 373.688 747.258 366 745 366 750.357 385 752.457 385 755.083 375.5C755.608 373.468 756.764 369.405 756.921 367.977L756.921 367.977C757.026 368.801 757.656 371.382 758.392 374.017L761.385 385 763.643 385 769 366" fill="#C35861" fill-rule="evenodd"/><path d="M773.763 386.665C773.548 387.348 772.957 388.43 771.989 388.43 771.935 388.43 771.398 388.43 770.968 388.146 771.72 387.861 771.828 387.177 771.828 387.063 771.828 386.608 771.505 386.323 771.075 386.323 770.538 386.323 770 386.778 770 387.519 770 388.487 771.021 389 771.935 389 772.796 389 773.602 388.373 774.032 387.576 774.516 388.601 775.538 389 776.29 389 778.441 389 779.57 386.494 779.57 385.924 779.57 385.696 779.355 385.696 779.301 385.696 779.032 385.696 778.979 385.753 778.925 385.981 778.548 387.405 777.419 388.43 776.344 388.43 775.591 388.43 775.215 387.861 775.215 387.12 775.215 386.608 775.645 384.785 776.183 382.563 776.559 381.025 777.419 380.57 778.011 380.57 778.065 380.57 778.656 380.57 779.032 380.854 778.441 381.025 778.226 381.595 778.226 381.937 778.226 382.392 778.548 382.677 778.979 382.677 779.409 382.677 780 382.278 780 381.424 780 380.342 778.817 380 778.065 380 777.151 380 776.398 380.627 775.968 381.424 775.645 380.57 774.785 380 773.71 380 771.613 380 770.43 382.449 770.43 383.019 770.43 383.304 770.699 383.304 770.753 383.304 770.968 383.304 771.021 383.247 771.075 382.962 771.559 381.424 772.742 380.57 773.656 380.57 774.301 380.57 774.785 380.911 774.785 381.88 774.785 382.278 774.57 383.247 774.409 383.93L773.763 386.665" fill="#C35861" fill-rule="evenodd"/><path d="M789.93 384.463 795.342 384.463C795.595 384.463 796 384.463 796 384.027 796 383.537 795.595 383.537 795.342 383.537L789.93 383.537 789.93 377.708C789.93 377.436 789.93 377 789.525 377 789.07 377 789.07 377.436 789.07 377.708L789.07 383.537 783.658 383.537C783.455 383.537 783 383.537 783 383.973 783 384.463 783.405 384.463 783.658 384.463L789.07 384.463 789.07 390.292C789.07 390.564 789.07 391 789.525 391 789.93 391 789.93 390.564 789.93 390.292L789.93 384.463" fill="#C35861" fill-rule="evenodd"/><path d="M799.106 391.921C799 392.262 799 392.319 799 392.376 799 392.773 799.37 393 799.635 393 800.322 393 800.428 392.319 800.534 391.978 800.587 391.921 800.957 390.332 801.38 388.345 801.962 388.799 802.702 388.969 803.337 388.969 804.923 388.969 805.981 387.55 805.981 387.493 806.351 388.856 807.62 388.969 807.885 388.969 808.572 388.969 809.048 388.515 809.365 387.891 809.788 387.096 810 385.961 810 385.904 810 385.677 809.788 385.677 809.736 385.677 809.471 385.677 809.418 385.734 809.313 386.245 809.101 387.21 808.731 388.402 807.938 388.402 807.462 388.402 807.356 387.948 807.356 387.437 807.356 387.096 807.514 386.358 807.62 385.847 807.779 385.336 807.938 384.485 808.043 384.087L808.466 382.271C808.572 381.817 808.784 380.908 808.784 380.852 808.784 380.454 808.466 380.17 808.149 380.17 807.938 380.17 807.62 380.284 807.409 380.681 807.356 380.795 807.197 381.419 807.091 381.817L806.721 383.463 806.139 385.961C806.034 386.472 806.034 386.472 805.875 386.755 805.293 387.607 804.447 388.402 803.442 388.402 801.909 388.402 801.909 386.983 801.909 386.642 801.909 386.131 801.962 385.847 802.226 384.769 802.385 383.917 802.438 383.747 802.649 383.009L802.861 381.873C802.966 381.476 803.178 380.738 803.178 380.624 803.178 380.284 802.913 380 802.543 380 801.856 380 801.697 380.681 801.644 380.908L799.106 391.921" fill="#C35861" fill-rule="evenodd"/><path d="M814.591 387.907C814.591 389.028 814.409 390.262 813.318 391.495 813.273 391.607 813.227 391.664 813.227 391.776 813.227 391.888 813.364 392 813.455 392 813.682 392 815 390.43 815 388.131 815 386.897 814.636 386 813.909 386 813.364 386 813 386.505 813 387.121 813 387.738 813.364 388.243 813.909 388.243 814.318 388.243 814.545 387.907 814.591 387.907" fill="#C35861" fill-rule="evenodd"/><path d="M821.464 380.584C821.464 380.526 821.52 380.409 821.52 380.292 821.52 380.292 821.52 380 821.184 380 821.184 380 820.067 380.117 819.899 380.117 819.564 380.117 819.173 380.175 818.838 380.175 818.503 380.234 818.279 380.234 818.279 380.643 818.279 380.935 818.559 380.935 818.782 380.935 819.732 380.935 819.732 381.052 819.732 381.286 819.732 381.403 819.62 381.812 819.564 382.045L818.559 386.195C818.112 388.24 818 388.649 818 388.708 818 389 818.279 389 818.335 389L818.67 389C820.402 388.708 822.86 387.773 824.983 385.844 827.609 383.331 828 380.701 828 380.643 828 380.292 827.721 380 827.33 380 826.659 380 826.547 380.584 826.324 381.169 825.542 384.032 822.972 387.188 819.62 388.182L821.464 380.584" fill="#C35861" fill-rule="evenodd"/><path d="M769 477 767.109 477 764.746 485.116C764.063 487.457 762.803 491.827 762.646 493.127L762.646 493.127C762.646 493.127 762.488 491.775 760.755 485.844L758.182 477 756.028 477 753.718 485.064C753.14 487.092 751.827 491.618 751.67 493.075L751.67 493.075C751.565 492.035 750.829 489.486 750.619 488.653L749.411 484.283 747.258 477 745 477 750.357 495 752.457 495 755.083 486C755.608 484.075 756.764 480.225 756.921 478.873L756.921 478.873C757.026 479.653 757.656 482.098 758.392 484.595L761.385 495 763.696 495 769 477" fill="#C35861" fill-rule="evenodd"/><path d="M773.743 496.924C773.583 497.532 772.941 498.494 771.979 498.494 771.925 498.494 771.39 498.494 771.016 498.241 771.765 497.987 771.818 497.38 771.818 497.278 771.818 496.873 771.497 496.62 771.07 496.62 770.535 496.62 770 497.025 770 497.684 770 498.544 771.07 499 771.979 499 772.834 499 773.583 498.443 774.064 497.734 774.492 498.646 775.508 499 776.257 499 778.396 499 779.572 496.772 779.572 496.266 779.572 496.063 779.305 496.063 779.251 496.063 778.984 496.063 778.984 496.114 778.877 496.316 778.503 497.582 777.38 498.494 776.364 498.494 775.615 498.494 775.187 497.987 775.187 497.329 775.187 496.873 775.668 495.253 776.203 493.278 776.578 491.911 777.38 491.506 778.021 491.506 778.021 491.506 778.61 491.506 779.037 491.759 778.396 491.911 778.182 492.418 778.182 492.722 778.182 493.127 778.503 493.38 778.93 493.38 779.358 493.38 780 493.025 780 492.266 780 491.304 778.77 491 778.021 491 777.112 491 776.364 491.557 775.936 492.266 775.615 491.506 774.759 491 773.69 491 771.604 491 770.428 493.177 770.428 493.684 770.428 493.937 770.695 493.937 770.749 493.937 771.016 493.937 771.016 493.886 771.123 493.633 771.551 492.266 772.727 491.506 773.636 491.506 774.278 491.506 774.759 491.81 774.759 492.671 774.759 493.025 774.545 493.886 774.385 494.494L773.743 496.924" fill="#C35861" fill-rule="evenodd"/><path d="M785.333 498.907C785.333 500.028 785.067 501.262 783.533 502.495 783.4 502.607 783.333 502.664 783.333 502.776 783.333 502.888 783.533 503 783.667 503 784 503 786 501.43 786 499.131 786 497.897 785.4 497 784.333 497 783.6 497 783 497.505 783 498.121 783 498.738 783.533 499.243 784.4 499.243 784.933 499.243 785.333 498.907 785.333 498.907" fill="#C35861" fill-rule="evenodd"/><path d="M789.106 502.004C789 502.319 789 502.371 789 502.424 789 502.79 789.317 503 789.635 503 790.322 503 790.428 502.371 790.534 502.057 790.534 502.004 790.904 500.537 791.38 498.703 791.962 499.122 792.702 499.279 793.337 499.279 794.923 499.279 795.981 497.969 795.981 497.917 796.351 499.175 797.62 499.279 797.885 499.279 798.572 499.279 799.048 498.86 799.365 498.284 799.788 497.55 800 496.502 800 496.45 800 496.24 799.788 496.24 799.736 496.24 799.471 496.24 799.418 496.293 799.313 496.764 799.101 497.655 798.731 498.755 797.938 498.755 797.462 498.755 797.356 498.336 797.356 497.865 797.356 497.55 797.514 496.869 797.62 496.397 797.779 495.926 797.938 495.14 798.043 494.773L798.466 493.096C798.572 492.677 798.784 491.838 798.784 491.786 798.784 491.419 798.466 491.157 798.149 491.157 797.938 491.157 797.62 491.262 797.409 491.629 797.356 491.734 797.197 492.31 797.091 492.677L796.721 494.197 796.139 496.502C796.034 496.974 796.034 496.974 795.875 497.236 795.293 498.022 794.447 498.755 793.442 498.755 791.909 498.755 791.909 497.445 791.909 497.131 791.909 496.659 791.962 496.397 792.226 495.402 792.385 494.616 792.438 494.459 792.649 493.777L792.861 492.729C792.966 492.362 793.178 491.681 793.178 491.576 793.178 491.262 792.913 491 792.543 491 791.856 491 791.697 491.629 791.644 491.838L789.106 502.004" fill="#C35861" fill-rule="evenodd"/><path d="M677 421 675.031 421 672.514 429.566C671.803 432.038 670.49 436.65 670.381 438.023L670.326 438.023C670.326 438.023 670.217 436.595 668.411 430.335L665.731 421 663.488 421 661.026 429.512C660.424 431.653 659.057 436.431 658.948 437.968L658.948 437.968C658.838 436.87 658.072 434.179 657.853 433.301L656.595 428.688 654.352 421 652 421 657.58 440 659.768 440 662.503 430.5C663.05 428.468 664.254 424.405 664.418 422.977L664.418 422.977C664.527 423.801 665.184 426.382 665.95 429.017L669.068 440 671.42 440 677 421" fill="#117877" fill-rule="evenodd"/><path d="M681.763 441.665C681.548 442.348 680.957 443.43 679.989 443.43 679.935 443.43 679.398 443.43 678.968 443.146 679.774 442.861 679.828 442.177 679.828 442.063 679.828 441.608 679.505 441.323 679.075 441.323 678.538 441.323 678 441.778 678 442.519 678 443.487 679.021 444 679.935 444 680.796 444 681.602 443.373 682.032 442.576 682.516 443.601 683.538 444 684.29 444 686.441 444 687.57 441.494 687.57 440.924 687.57 440.696 687.355 440.696 687.301 440.696 687.032 440.696 687.032 440.753 686.925 440.981 686.548 442.405 685.419 443.43 684.344 443.43 683.591 443.43 683.215 442.861 683.215 442.12 683.215 441.608 683.645 439.785 684.183 437.563 684.559 436.025 685.419 435.57 686.011 435.57 686.065 435.57 686.656 435.57 687.032 435.854 686.441 436.025 686.226 436.595 686.226 436.937 686.226 437.392 686.548 437.677 686.979 437.677 687.409 437.677 688 437.278 688 436.424 688 435.342 686.817 435 686.065 435 685.151 435 684.398 435.627 683.968 436.424 683.645 435.57 682.785 435 681.71 435 679.613 435 678.43 437.449 678.43 438.019 678.43 438.304 678.699 438.304 678.753 438.304 678.968 438.304 679.021 438.247 679.075 437.962 679.559 436.424 680.742 435.57 681.656 435.57 682.301 435.57 682.785 435.911 682.785 436.88 682.785 437.278 682.57 438.247 682.409 438.93L681.763 441.665" fill="#117877" fill-rule="evenodd"/><path d="M692.545 443.589C692.545 444.523 692.409 445.551 691.318 446.579 691.273 446.673 691.227 446.72 691.227 446.813 691.227 446.907 691.364 447 691.455 447 691.682 447 693 445.692 693 443.776 693 442.748 692.636 442 691.909 442 691.364 442 691 442.421 691 442.935 691 443.449 691.364 443.869 691.909 443.869 692.273 443.869 692.545 443.589 692.545 443.589" fill="#117877" fill-rule="evenodd"/><path d="M696.053 446.921C696 447.262 696 447.319 696 447.376 696 447.773 696.317 448 696.635 448 697.269 448 697.428 447.319 697.481 446.978 697.534 446.921 697.904 445.332 698.327 443.345 698.909 443.799 699.649 443.969 700.337 443.969 701.923 443.969 702.928 442.55 702.981 442.493 703.298 443.856 704.62 443.969 704.885 443.969 705.519 443.969 705.995 443.515 706.313 442.891 706.736 442.096 707 440.961 707 440.904 707 440.677 706.736 440.677 706.683 440.677 706.418 440.677 706.418 440.734 706.26 441.245 706.048 442.21 705.678 443.402 704.938 443.402 704.462 443.402 704.303 442.948 704.303 442.437 704.303 442.096 704.462 441.358 704.62 440.847 704.726 440.336 704.885 439.485 704.99 439.087L705.413 437.271C705.519 436.817 705.731 435.908 705.731 435.852 705.731 435.454 705.466 435.17 705.149 435.17 704.938 435.17 704.567 435.284 704.356 435.681 704.303 435.795 704.197 436.419 704.091 436.817L703.668 438.463 703.139 440.961C702.981 441.472 702.981 441.472 702.822 441.755 702.24 442.607 701.447 443.402 700.389 443.402 698.856 443.402 698.856 441.983 698.856 441.642 698.856 441.131 698.909 440.847 699.173 439.769 699.385 438.917 699.438 438.747 699.596 438.009L699.861 436.873C699.966 436.476 700.125 435.738 700.125 435.624 700.125 435.284 699.861 435 699.49 435 698.856 435 698.697 435.681 698.644 435.908L696.053 446.921" fill="#117877" fill-rule="evenodd"/><path d="M712.464 435.584C712.464 435.526 712.52 435.409 712.52 435.292 712.52 435.292 712.52 435 712.184 435 712.184 435 711.067 435.117 710.955 435.117 710.564 435.117 710.229 435.175 709.838 435.175 709.503 435.234 709.279 435.234 709.279 435.643 709.279 435.935 709.559 435.935 709.782 435.935 710.732 435.935 710.732 436.052 710.732 436.286 710.732 436.403 710.62 436.812 710.564 437.045L709.559 441.195C709.112 443.24 709 443.649 709 443.708 709 444 709.279 444 709.391 444L709.67 444C711.402 443.708 713.916 442.773 715.983 440.844 718.609 438.331 719 435.701 719 435.643 719 435.292 718.721 435 718.33 435 717.659 435 717.547 435.584 717.38 436.169 716.598 439.032 713.972 442.188 710.676 443.182L712.464 435.584" fill="#117877" fill-rule="evenodd"/><path d="M605 474 603.031 474 600.514 482.144C599.803 484.427 598.545 488.784 598.381 490.133L598.381 490.133C598.381 490.081 598.217 488.732 596.411 482.87L593.731 474 591.488 474 589.026 482.092C588.424 484.063 587.112 488.628 586.948 490.081L586.948 490.081C586.838 489.043 586.072 486.501 585.853 485.62L584.595 481.314 582.352 474 580 474 585.58 492 587.768 492 590.503 482.974C591.05 481.107 592.254 477.268 592.418 475.919L592.418 475.919C592.527 476.697 593.184 479.135 593.95 481.625L597.068 492 599.42 492 605 474" fill="#C35861" fill-rule="evenodd"/><path d="M610.279 472.313C610.589 472.313 610.775 472.366 611.457 472.472 612.14 472.684 612.636 472.791 613.07 472.791 613.938 472.791 614 472.206 614 472.047 614 471.888 613.938 471.356 613.07 471.356 612.636 471.356 612.14 471.462 611.457 471.622 610.775 471.781 610.589 471.781 610.279 471.834 610.279 471.144 610.465 470.4 610.589 469.816 610.651 469.444 610.837 468.487 610.837 467.85 610.837 467.266 610.527 467 609.969 467 609.535 467 609.163 467.212 609.163 467.85 609.163 468.434 609.349 469.391 609.473 470.028 609.473 470.241 609.721 471.144 609.721 471.834 609.411 471.781 609.225 471.781 608.543 471.622 607.86 471.462 607.364 471.356 606.93 471.356 606.062 471.356 606 471.888 606 472.047 606 472.206 606.062 472.791 606.93 472.791 607.364 472.791 607.86 472.684 608.543 472.472 609.225 472.366 609.411 472.313 609.721 472.313 609.721 472.737 609.535 473.375 609.411 473.747 609.163 474.916 609.163 475.022 609.163 475.978 609.163 479.591 609.535 483.362 609.659 483.734 609.659 483.894 609.721 484 609.969 484 610.341 484 610.341 483.894 610.403 483.628 610.403 483.628 610.589 482.034 610.651 480.866 610.775 479.272 610.837 477.625 610.837 475.978 610.837 475.022 610.837 474.916 610.527 473.694 610.465 473.481 610.279 472.737 610.279 472.313" fill="#C35861" fill-rule="evenodd"/><path d="M609.763 496.924C609.548 497.532 608.957 498.494 607.989 498.494 607.935 498.494 607.398 498.494 606.968 498.241 607.774 497.987 607.828 497.38 607.828 497.278 607.828 496.873 607.505 496.62 607.075 496.62 606.538 496.62 606 497.025 606 497.684 606 498.595 607.021 499 607.935 499 608.796 499 609.602 498.494 610.086 497.734 610.516 498.646 611.538 499 612.29 499 614.441 499 615.57 496.772 615.57 496.266 615.57 496.063 615.355 496.063 615.301 496.063 615.032 496.063 615.032 496.114 614.925 496.367 614.548 497.582 613.419 498.494 612.344 498.494 611.591 498.494 611.215 497.987 611.215 497.329 611.215 496.873 611.645 495.253 612.183 493.329 612.559 491.962 613.419 491.506 614.011 491.506 614.065 491.506 614.656 491.506 615.032 491.759 614.441 491.911 614.226 492.418 614.226 492.722 614.226 493.127 614.548 493.38 614.979 493.38 615.409 493.38 616 493.025 616 492.316 616 491.304 614.817 491 614.065 491 613.151 491 612.398 491.608 611.968 492.266 611.645 491.557 610.785 491 609.71 491 607.613 491 606.43 493.177 606.43 493.734 606.43 493.937 606.699 493.937 606.753 493.937 606.968 493.937 607.021 493.886 607.075 493.633 607.559 492.266 608.742 491.506 609.656 491.506 610.301 491.506 610.785 491.81 610.785 492.671 610.785 493.025 610.57 493.886 610.409 494.494L609.763 496.924" fill="#C35861" fill-rule="evenodd"/><path d="M621.318 498.944C621.318 500 621.114 501.222 619.477 502.444 619.409 502.556 619.341 502.611 619.341 502.722 619.341 502.833 619.545 503 619.682 503 620.023 503 622 501.444 622 499.111 622 497.889 621.455 497 620.364 497 619.545 497 619 497.5 619 498.111 619 498.722 619.545 499.222 620.364 499.222 620.977 499.222 621.318 498.944 621.318 498.944" fill="#C35861" fill-rule="evenodd"/><path d="M628.117 491.519C628.117 491.468 628.168 491.364 628.168 491.26 628.168 491.26 628.168 491 627.866 491 627.866 491 626.86 491.104 626.709 491.104 626.408 491.156 626.056 491.156 625.754 491.208 625.453 491.208 625.251 491.208 625.251 491.623 625.251 491.883 625.503 491.883 625.704 491.883 626.559 491.883 626.559 491.987 626.559 492.143 626.559 492.247 626.458 492.61 626.408 492.818L625.503 496.507C625.101 498.325 625 498.688 625 498.74 625 499 625.251 499 625.302 499L625.603 499C627.162 498.74 629.374 497.909 631.285 496.195 633.648 493.961 634 491.623 634 491.571 634 491.26 633.749 491 633.397 491 632.793 491 632.693 491.519 632.492 492.039 631.788 494.584 629.475 497.39 626.458 498.273L628.117 491.519" fill="#C35861" fill-rule="evenodd"/></g></svg>